<?xml version="1.0" encoding="UTF-8"?>
<svg width="245px" height="245px" viewBox="0 0 245 245" version="1.1" xmlns="http://www.w3.org/2000/svg" xmlns:xlink="http://www.w3.org/1999/xlink">
    <!-- Generator: Sketch 58 (84663) - https://sketch.com -->
    <title>Spinner Copy</title>
    <desc>Created with Sketch.</desc>
    <defs>
        <polygon id="path-1" points="0.564621479 0.22522807 8.11476232 0.22522807 8.11476232 13.1231456 0.564621479 13.1231456"></polygon>
    </defs>
    <g id="Page-1" stroke="none" stroke-width="1" fill="none" fill-rule="evenodd">
        <g id="Portfolio---Final" transform="translate(-7.000000, -787.000000)">
            <g id="Spinner-Copy" transform="translate(129.500000, 909.500000) rotate(-15.000000) translate(-129.500000, -909.500000) translate(7.000000, 787.000000)">
                <g id="Letters">
                    <g>
                        <path d="M104.52278,2.1430193 L106.372357,1.93154561 L107.034893,7.69119474 L111.458695,1.35042281 L113.752551,1.08737018 L109.031125,7.49863333 C109.738519,8.21987895 110.812551,9.27896667 112.25322,10.6767561 C113.693026,12.073686 114.732551,13.0949491 115.370931,13.7405456 L113.006336,14.0104754 C112.282551,13.2557035 111.230949,12.2086509 109.85153,10.8701772 C108.472111,9.53170351 107.551636,8.62563333 107.088379,8.15196667 L107.831143,14.6027737 L105.981565,14.8142474 L104.52278,2.1430193 Z" id="Fill-7" fill="#000000"></path>
                        <polygon id="Fill-9" fill="#000000" points="115.966782 1.06175263 117.84569 0.977507018 118.41937 13.7235246 116.540461 13.8077702"></polygon>
                        <g id="Group-13" transform="translate(120.774648, 0.634421)">
                            <mask id="mask-2" fill="white">
                                <use xlink:href="#path-1"></use>
                            </mask>
                            <g id="Clip-12"></g>
                            <polygon id="Fill-11" fill="#000000" mask="url(#mask-2)" points="0.808758803 0.224970175 2.70664613 0.261075439 2.49270246 11.3926719 8.11476232 11.5001281 8.08370599 13.1231456 0.564621479 12.9804439"></polygon>
                        </g>
                        <polygon id="Fill-14" fill="#000000" points="131.946475 1.21829474 133.834011 1.41257544 132.684063 12.4874351 138.276792 13.0642596 138.109433 14.6786807 130.629169 13.9075754"></polygon>
                        <path d="M148.486391,6.42785439 C147.495176,7.14222281 146.817113,8.22022281 146.454789,9.66185439 C146.091602,11.103486 146.178732,12.3792053 146.717042,13.4890123 C147.256215,14.5988193 148.180141,15.3166263 149.487958,15.6441526 C150.795775,15.9708193 151.950035,15.7756789 152.949014,15.0561526 C153.947993,14.337486 154.63037,13.2517491 154.996144,11.7980825 C155.362782,10.3452754 155.276514,9.07299474 154.739067,7.9821 C154.20162,6.89206491 153.267342,6.17941579 151.936232,5.84673158 C150.628415,5.52006491 149.478468,5.71348596 148.486391,6.42785439 M156.424736,7.22646842 C157.282236,8.70420526 157.471162,10.400293 156.988063,12.3147316 C156.50669,14.2300298 155.543944,15.6346965 154.099824,16.5304509 C152.656567,17.4262053 150.996778,17.6393982 149.12132,17.1708895 C147.246725,16.7015211 145.88456,15.7326965 145.036549,14.2644158 C144.188539,12.7952754 144.005651,11.103486 144.487887,9.18904737 C144.970123,7.27374912 145.93632,5.86650351 147.387342,4.96645088 C148.838363,4.06639825 150.489525,3.84804737 152.34169,4.31139825 C154.20507,4.77732807 155.566373,5.74873158 156.424736,7.22646842" id="Fill-16" fill="#000000"></path>
                        <polygon id="Fill-18" fill="#000000" points="161.739942 7.2681614 169.090805 9.98551228 168.517125 11.5242842 162.9451 9.46456491 161.632107 12.9934246 166.801262 14.9044246 166.228445 16.4423368 161.05929 14.5321965 159.066509 19.8835123 157.287671 19.2258807"></polygon>
                        <polygon id="Fill-20" fill="#000000" points="172.069366 11.2926947 179.138134 14.6650982 178.427289 16.145414 173.069208 13.5888175 171.439613 16.9818526 176.409489 19.3527649 175.698644 20.8330807 170.727905 18.4613088 168.255475 23.6071684 166.545651 22.7913614"></polygon>
                        <polygon id="Fill-22" fill="#000000" points="186.548607 20.8756333 183.621548 19.0127737 184.508379 17.6304579 191.945509 22.363686 191.05954 23.7468614 188.132481 21.8840018 182.129981 31.2490193 180.545245 30.2415105"></polygon>
                        <polygon id="Fill-24" fill="#000000" points="186.461908 34.0784684 194.387313 24.0618368 195.862489 25.2215035 192.504092 29.4664509 197.172032 33.1328544 200.53043 28.8887667 201.991803 30.0372579 194.067261 40.0538895 192.605025 38.9053982 196.18513 34.3802053 191.51719 30.7129421 187.937947 35.2381351"></polygon>
                        <polygon id="Fill-26" fill="#000000" points="205.05991 32.8012018 210.809646 38.3717281 209.662287 39.5485877 205.272129 35.2959035 202.627164 38.0072368 206.708484 41.9616228 205.573202 43.1255877 201.491019 39.1712018 198.633836 42.1000263 203.11285 46.4395351 201.977569 47.6035 196.137252 41.9452895"></polygon>
                        <path d="M214.35559,49.7066316 C213.004639,50.1184035 212.112632,50.3874737 211.680431,50.5121228 L214.383195,53.9541579 C214.545379,53.6773509 214.795555,53.263 215.134586,52.7111053 C215.475343,52.1600702 215.900643,51.4577368 216.413935,50.6049649 C216.509692,50.4390526 216.691717,50.1347368 216.959146,49.6928772 C217.22485,49.2510175 217.410326,48.9518596 217.51471,48.7945439 L217.493143,48.7670351 C216.752104,48.9819474 215.70654,49.2948596 214.35559,49.7066316 M211.343988,48.838386 C214.316769,47.9924912 216.601136,47.3408772 218.195361,46.8826842 L219.596347,48.6673158 L212.659569,60.529614 L211.435431,58.9702105 L213.532597,55.3880526 L210.079305,50.9909474 L206.107544,52.185 L204.917051,50.6677193 C206.229181,50.2937719 208.371206,49.6842807 211.343988,48.838386" id="Fill-28" fill="#000000"></path>
                        <path d="M222.850965,52.8723754 L223.970718,54.6355158 L219.214785,60.5894456 C218.225296,61.8316386 217.422144,62.8236737 216.805331,63.5646912 L216.82431,63.5947789 C217.044292,63.5406211 218.330542,63.2431825 220.683923,62.7024632 L228.027884,61.0261474 L229.089838,62.6990246 L215.740789,65.5238316 L214.525278,63.609393 C214.949715,63.0325684 217.724944,59.4529895 222.850965,52.8723754" id="Fill-30" fill="#000000"></path>
                        <polygon id="Fill-32" fill="#000000" points="230.302502 65.0711404 233.887783 72.2174035 232.415195 72.9506842 229.677062 67.4953509 226.284157 69.1862807 228.829914 74.2590702 227.372854 74.984614 224.82796 69.9118246 221.161586 71.7385789 223.955794 77.304807 222.498734 78.0312105 218.856516 70.773193"></polygon>
                        <path d="M230.303364,79.2570702 L231.009896,81.0881228 C231.694861,82.8641579 232.728347,83.4865439 234.108629,82.9578596 C234.833276,82.680193 235.262889,82.2546667 235.399192,81.6804211 C235.535495,81.1053158 235.436287,80.3857895 235.102431,79.5201228 C234.777202,78.676807 234.535653,78.0681754 234.379509,77.6959474 L230.303364,79.2570702 Z M235.257713,75.3525439 L236.645759,78.9475965 C237.189245,80.3574211 237.364368,81.4878596 237.16854,82.3397719 C236.898523,83.5260877 236.144544,84.3565088 234.908329,84.8293158 C233.928329,85.2049825 233.058752,85.2299123 232.299597,84.902386 C231.541305,84.5757193 230.909826,84.0246842 230.406023,83.2501404 C229.165495,84.8714386 227.870618,86.5331404 226.519667,88.2352456 L225.71134,86.1377018 C226.584368,85.0897895 227.827484,83.5561754 229.4381,81.5377193 L228.783329,79.8399123 L223.989438,81.6769825 L223.313963,79.9293158 L235.257713,75.3525439 Z" id="Fill-34" fill="#000000"></path>
                        <path d="M235.717002,91.2069667 C234.312565,91.059107 233.386914,90.9585281 232.940048,90.9052298 L234.076192,95.1252474 C234.333269,94.9335456 234.72665,94.6498614 235.254607,94.2750544 C235.783428,93.8993877 236.452002,93.4197035 237.256879,92.8351421 C237.41216,92.7199491 237.698569,92.5110544 238.116967,92.2093175 C238.536227,91.9058614 238.824361,91.7029842 238.981368,91.5998263 L238.971879,91.5654404 C238.206685,91.4743175 237.121438,91.3548263 235.717002,91.2069667 M233.287706,89.2349316 C236.353657,89.6148965 238.71135,89.9054579 240.358199,90.1057561 L240.946544,92.2927035 L229.909467,100.502353 L229.394449,98.590493 L232.729555,96.1129842 L231.278533,90.7221246 L227.156667,90.2725281 L226.656315,88.4122474 C228.009854,88.5798789 230.220893,88.854107 233.287706,89.2349316" id="Fill-36" fill="#000000"></path>
                        <path d="M238.4095,111.659739 L231.716859,112.646616 L231.46582,110.953107 L231.519306,110.944511 C232.097299,110.859405 232.611454,110.789774 233.061771,110.735616 C231.662511,109.920668 230.82744,108.601107 230.55656,106.777791 C230.290856,104.990581 230.677335,103.430318 231.715996,102.099581 C232.754658,100.768844 234.260028,99.9581947 236.231243,99.6667737 C238.155011,99.3839491 239.823426,99.732107 241.234764,100.714686 C242.647827,101.696405 243.495838,103.139756 243.777933,105.044739 C244.003092,106.562019 243.819342,107.857511 243.224095,108.930353 C242.629711,110.004054 241.750644,110.806107 240.586894,111.33823 L240.301349,109.416054 C241.8395,108.479896 242.471842,107.094142 242.200099,105.259651 C242.004271,103.941809 241.405574,102.957511 240.40487,102.305896 C239.40244,101.654282 238.117053,101.444528 236.547845,101.675774 C235.012282,101.901861 233.845944,102.470949 233.046243,103.382177 C232.246542,104.293405 231.944606,105.401493 232.137845,106.7073 C232.325046,107.965826 232.847827,108.883072 233.704465,109.459896 C234.561965,110.036721 235.511771,110.296335 236.553021,110.238739 L235.868919,105.634458 L237.479535,105.396335 L238.4095,111.659739 Z" id="Fill-38" fill="#000000"></path>
                        <polygon id="Fill-40" fill="#000000" points="244.588072 114.420416 244.894322 122.406556 243.249199 122.469311 243.015414 116.372679 239.222227 116.5171 239.440484 122.186486 237.812614 122.248381 237.59522 116.578995 233.498371 116.735451 233.737333 122.956732 232.1086 123.018626 231.798037 114.907837"></polygon>
                        <polygon id="Fill-42" fill="#000000" points="238.053129 129.730423 237.238762 138.184212 235.759273 138.04237 236.573639 129.588581"></polygon>
                        <path d="M242.476845,147.530318 L241.709063,150.46516 L234.362514,150.897563 C233.997602,150.925932 233.354046,150.958598 232.430982,150.995563 C231.508782,151.032528 230.929063,151.057458 230.691827,151.068633 L230.687514,151.086686 L233.905296,153.138668 L239.988887,157.041475 L239.248711,159.8723 L226.862408,156.655493 L227.323077,154.894932 L233.715507,156.554914 C234.177039,156.675265 234.934468,156.880721 235.986933,157.173002 C237.038535,157.464423 237.720049,157.650107 238.033201,157.731774 L238.037514,157.714581 C236.794398,156.949493 235.513324,156.144002 234.191704,155.296388 L228.234926,151.408195 L228.736141,149.492037 L237.196405,148.905756 C237.786475,148.862774 238.842391,148.836125 240.362426,148.824949 L240.366739,148.806896 C239.020965,148.481949 237.632056,148.133791 236.200877,147.762423 L229.634187,146.056879 L230.091405,144.313511 L242.476845,147.530318 Z" id="Fill-44" fill="#000000"></path>
                        <polygon id="Fill-46" fill="#000000" points="237.767496 163.870356 234.842162 171.30976 233.309187 170.711444 235.542655 165.032602 232.009134 163.652865 229.933535 168.933689 228.416951 168.341391 230.492549 163.061426 226.676933 161.570795 224.398606 167.366549 222.882021 166.774251 225.852215 159.218795"></polygon>
                        <path d="M222.600789,171.045589 L221.933077,172.328186 C221.130789,173.869537 220.859046,175.191677 221.117849,176.296326 C221.375789,177.401835 222.26262,178.34487 223.777479,179.128011 C225.165525,179.844958 226.423306,180.010011 227.552549,179.623168 C228.681792,179.234607 229.619521,178.323379 230.366599,176.887765 L231.100736,175.438396 L222.600789,171.045589 Z M233.419609,174.507396 L231.813306,177.595256 C230.731511,179.674747 229.428007,180.990011 227.903658,181.541905 C226.380173,182.09466 224.691915,181.890923 222.837162,180.933274 C222.021933,180.512046 221.339556,180.015168 220.790032,179.443502 C220.242232,178.871835 219.828148,178.219361 219.551229,177.486081 C219.27431,176.75366 219.195806,175.916361 219.315718,174.973326 C219.436493,174.032011 219.769486,173.038256 220.312972,171.993782 L222.059891,168.636853 L233.419609,174.507396 Z" id="Fill-48" fill="#000000"></path>
                        <polygon id="Fill-50" fill="#000000" points="226.824796 186.521767 225.829268 188.112118 214.968176 181.358714 215.962842 179.770082"></polygon>
                        <path d="M220.111278,191.742674 C219.835222,190.554639 219.101085,189.515323 217.908004,188.623007 C216.715785,187.731551 215.502863,187.31806 214.268373,187.382533 C213.033884,187.447007 212.011613,188.016954 211.202423,189.090656 C210.393232,190.165218 210.127528,191.299954 210.404447,192.495726 C210.682229,193.692358 211.422405,194.738551 212.62325,195.637744 C213.82582,196.536937 215.035292,196.952147 216.251665,196.880796 C217.468901,196.810305 218.488585,196.228323 219.311577,195.134849 C220.12163,194.060288 220.387335,192.929849 220.111278,191.742674 M216.297387,198.720446 C214.598778,198.936218 212.957968,198.452235 211.374095,197.267639 C209.791085,196.083042 208.86457,194.654305 208.595415,192.981428 C208.327123,191.309411 208.772264,189.703586 209.932563,188.163095 C211.092863,186.623463 212.516278,185.74834 214.20281,185.538586 C215.889342,185.328832 217.524975,185.816253 219.107986,187.000849 C220.691859,188.185446 221.618373,189.618481 221.888391,191.299095 C222.158408,192.979709 221.720169,194.581235 220.574535,196.101095 C219.422,197.63213 217.995996,198.504674 216.297387,198.720446" id="Fill-52" fill="#000000"></path>
                        <path d="M199.707782,205.659018 C199.120299,204.466684 198.921884,203.268333 199.11081,202.061386 C199.298873,200.855298 199.903609,199.725719 200.92243,198.672649 C202.223345,197.329018 203.721813,196.66193 205.418697,196.673965 C207.115581,196.68514 208.676162,197.375439 210.103028,198.745719 C211.520405,200.108263 212.259718,201.640158 212.320106,203.342263 C212.380493,205.044368 211.752465,206.575404 210.436021,207.937088 C209.407711,208.998754 208.290546,209.639193 207.083662,209.859263 C205.875915,210.078474 204.655229,209.875596 203.419877,209.250632 L204.761338,207.863158 C206.495317,208.505316 208.008451,208.158018 209.300739,206.822982 C210.24537,205.846421 210.653415,204.764123 210.526602,203.576947 C210.399789,202.388912 209.790739,201.271368 208.699454,200.222596 C207.608169,199.173825 206.453908,198.602158 205.236673,198.506737 C204.019437,198.410456 202.938504,198.850596 201.993873,199.827158 C200.75162,201.110614 200.444507,202.584053 201.075123,204.245754 L199.707782,205.659018 Z" id="Fill-54" fill="#000000"></path>
                        <path d="M198.50987,210.576039 L196.996736,211.832846 C195.530187,213.051828 195.269658,214.226968 196.217739,215.359986 C196.714641,215.954863 197.258127,216.223074 197.847335,216.167196 C198.438268,216.11046 199.090451,215.785512 199.806472,215.190635 C200.503514,214.612091 201.003866,214.188284 201.307528,213.920933 L198.50987,210.576039 Z M203.817915,213.996582 L200.846859,216.463775 C199.682246,217.43174 198.664289,217.959565 197.791261,218.048968 C196.57575,218.176196 195.543989,217.731758 194.695116,216.718232 C194.023092,215.9136 193.71943,215.101232 193.785856,214.279407 C193.853144,213.457582 194.173197,212.683898 194.747739,211.958354 C192.806718,211.310179 190.809623,210.62246 188.756454,209.896056 L190.48957,208.456144 C191.768056,208.944425 193.625398,209.623547 196.06332,210.493512 L197.466894,209.328688 L194.176648,205.394933 L195.619905,204.194863 L203.817915,213.996582 Z" id="Fill-56" fill="#000000"></path>
                        <polygon id="Fill-58" fill="#000000" points="194.620236 221.312368 193.093299 222.405842 185.620799 212.052228 187.146873 210.957895"></polygon>
                        <polygon id="Fill-60" fill="#000000" points="187.141697 224.415186 190.086011 222.580695 190.959901 223.971607 183.477049 228.634344 182.603158 227.243432 185.547472 225.408081 179.635553 215.985467 181.228915 214.992572"></polygon>
                        <path d="M174.881431,224.317788 C175.346414,224.62984 176.451502,225.386332 178.196695,226.587261 C179.941026,227.787332 181.287664,228.714893 182.234882,229.371665 L180.332681,230.327595 C177.132153,228.048665 175.28085,226.729104 174.777048,226.368911 L174.659724,233.183349 L172.870533,234.082542 C172.908491,232.971016 172.970604,231.397858 173.056009,229.363068 C173.140551,227.329139 173.195762,225.925332 173.219055,225.155086 L170.983861,220.743367 L172.646238,219.906928 L174.881431,224.317788 Z" id="Fill-62" fill="#000000"></path>
                        <polygon id="Fill-64" fill="#000000" points="166.808164 236.502368 165.051755 237.166877 160.505452 225.246982 162.261861 224.582474"></polygon>
                        <path d="M157.905951,230.02474 C157.585898,229.375705 157.12868,228.913214 156.534296,228.638986 C155.940775,228.363039 155.226479,228.351004 154.392271,228.602021 C153.591708,228.841004 153.018028,229.219249 152.668644,229.733319 C152.318398,230.248249 152.237306,230.812179 152.423644,231.427688 C152.519401,231.745758 152.655704,232.000214 152.830827,232.190196 C153.006813,232.37846 153.259577,232.514284 153.58912,232.595091 C153.919525,232.676758 154.199032,232.726618 154.428504,232.743811 C154.657975,232.762723 155.029789,232.774758 155.543081,232.782495 L156.425599,232.797109 C157.75412,232.820319 158.790194,233.003425 159.535546,233.344705 C160.280898,233.686846 160.790739,234.311811 161.065933,235.223039 C161.368732,236.225389 161.222077,237.153811 160.626831,238.009161 C160.031585,238.864512 159.099894,239.4826 157.831761,239.862565 C156.552412,240.247688 155.458539,240.245968 154.550141,239.859986 C153.642606,239.474004 152.969718,238.763933 152.532342,237.728056 L154.383644,237.171863 C154.989243,238.393425 156.006338,238.789723 157.434067,238.361618 C158.131972,238.152723 158.635775,237.830354 158.946338,237.395372 C159.256901,236.960389 159.33368,236.482425 159.17581,235.958039 C159.003275,235.388951 158.672007,235.021881 158.179419,234.859407 C157.688556,234.696933 157.007042,234.616126 156.134014,234.616986 L155.199736,234.617846 C153.891056,234.613547 152.866197,234.451074 152.128609,234.132144 C151.390158,233.814074 150.876866,233.176214 150.58787,232.220284 C150.250563,231.10446 150.397218,230.082337 151.026109,229.154775 C151.655863,228.227214 152.639313,227.562705 153.975599,227.162109 C155.346391,226.750337 156.542923,226.747758 157.563468,227.156091 C158.583151,227.564425 159.309525,228.336389 159.74,229.473705 L157.905951,230.02474 Z" id="Fill-66" fill="#000000"></path>
                        <path d="M146.563917,242.649118 L144.540942,242.917328 C144.32096,242.263135 143.940519,241.153328 143.399621,239.587047 C142.858724,238.021626 142.446364,236.807802 142.161681,235.945574 C141.437896,233.77496 141.049692,232.590363 140.999657,232.392644 L140.946171,232.399521 C140.938407,232.784644 140.83316,234.029416 140.633882,236.131258 L139.945467,243.529398 L137.408336,243.86724 L134.401048,235.717767 C134.194005,235.158135 133.932614,234.376714 133.617738,233.375223 L133.582368,233.380381 L133.339956,237.227311 L132.8836,244.468995 L130.966734,244.724311 C131.031435,243.948047 131.200519,242.002661 131.476576,238.888153 C131.750907,235.774504 131.957086,233.380381 132.094252,231.706644 L134.738354,231.354188 L137.449745,238.786714 C137.621417,239.256082 137.961312,240.271328 138.472016,241.835889 L138.507386,241.831591 C138.519463,241.290012 138.580713,240.399416 138.691998,239.160661 L139.439938,230.729223 L142.155643,230.367311 C144.922245,238.074065 146.391382,242.167714 146.563917,242.649118" id="Fill-68" fill="#000000"></path>
                        <path d="M124.903502,239.981196 C125.389188,238.659056 125.711829,237.788232 125.87315,237.369582 L121.486442,237.440074 C121.61153,237.735793 121.791829,238.18453 122.028202,238.787144 C122.264576,239.390618 122.5691,240.153126 122.942639,241.07467 C123.016829,241.252618 123.150544,241.579284 123.342921,242.058968 C123.53616,242.537793 123.663836,242.865319 123.726812,243.043267 L123.763044,243.042407 C124.037375,242.3246 124.417815,241.304196 124.903502,239.981196 M127.415614,238.11146 C126.298449,240.985267 125.441812,243.193705 124.846565,244.737635 L122.573414,244.7746 L117.263643,232.101653 L119.250386,232.069846 L120.853238,235.897863 L126.456319,235.80846 L127.89785,231.930582 L129.831107,231.899635 C129.338519,233.167618 128.533643,235.238512 127.415614,238.11146" id="Fill-70" fill="#000000"></path>
                        <path d="M113.964252,236.639139 C114.198037,237.148051 114.743248,238.367033 115.602474,240.298665 C116.461699,242.229437 117.122509,243.720068 117.586629,244.772279 L115.464445,244.599489 C113.929745,240.990682 113.042051,238.902595 112.800502,238.334367 L109.132403,244.081981 L107.134445,243.919507 C107.749533,242.991946 108.626875,241.68184 109.764745,239.990911 C110.903477,238.3017 111.684199,237.133437 112.109498,236.48784 L112.513231,231.56463 L114.368847,231.715928 L113.964252,236.639139 Z" id="Fill-72" fill="#000000"></path>
                        <polygon id="Fill-74" fill="#000000" points="99.0409049 240.855975 102.441574 241.550572 102.112032 243.158116 93.4671549 241.392396 93.7984225 239.784853 97.1990915 240.480309 99.4385986 229.594572 101.279549 229.971098"></polygon>
                        <path d="M89.4167183,237.455204 C90.4502042,236.80187 91.1921056,235.767712 91.6415599,234.351011 C92.0910141,232.934309 92.080662,231.656011 91.6105035,230.516975 C91.1403451,229.37794 90.2621408,228.605116 88.9767535,228.199361 C87.6922289,227.795326 86.5293415,227.920835 85.4880915,228.577607 C84.4477042,229.234379 83.7014894,230.276274 83.2485845,231.705011 C82.7939542,233.132888 82.802581,234.406888 83.2727394,235.52787 C83.7428979,236.648853 84.6314542,237.4148 85.9401338,237.827432 C87.2246585,238.232326 88.3840951,238.108537 89.4167183,237.455204 M81.545662,236.180344 C80.778743,234.654467 80.6942007,232.950642 81.2911725,231.06887 C81.8881444,229.187958 82.9345704,227.843467 84.429588,227.037116 C85.923743,226.229905 87.5930211,226.118151 89.4348345,226.698414 C91.2775106,227.279537 92.5775634,228.328309 93.334993,229.84387 C94.0915599,231.361151 94.1717887,233.060677 93.5739542,234.941589 C92.9769824,236.823361 91.9271056,238.168712 90.4251866,238.979361 C88.9232676,239.790011 87.2617535,239.908642 85.4423697,239.335256 C83.6117711,238.757572 82.312581,237.706221 81.545662,236.180344" id="Fill-76" fill="#000000"></path>
                        <path d="M74.9693961,232.304788 C76.0787975,231.788998 76.948375,230.857139 77.5781285,229.510068 C78.207882,228.162998 78.3631637,226.892437 78.0439736,225.701823 C77.7247835,224.511209 76.9544137,223.631788 75.7320018,223.064419 C74.5087271,222.497911 73.3380757,222.472121 72.2209102,222.990489 C71.1037447,223.508858 70.2272658,224.446735 69.5931989,225.804981 C68.9582694,227.164946 68.802125,228.429489 69.1230405,229.601191 C69.443956,230.774612 70.2264032,231.648875 71.470382,232.22656 C72.6936567,232.793068 73.8599947,232.819718 74.9693961,232.304788 M67.3243609,230.027577 C66.7610335,228.414875 66.8981989,226.71363 67.7332694,224.92384 C68.5700651,223.134051 69.782125,221.93484 71.3694489,221.326209 C72.9567729,220.717577 74.6277764,220.820735 76.3807342,221.633963 C78.1328292,222.447191 79.2870898,223.654139 79.8417905,225.256525 C80.3964912,226.858911 80.255875,228.554998 79.4199419,230.344788 C78.5831461,232.134577 77.3676356,233.334647 75.7725475,233.945858 C74.1765968,234.557068 72.5133574,234.461647 70.7819665,233.657875 C69.0402236,232.850665 67.8876884,231.640279 67.3243609,230.027577" id="Fill-78" fill="#000000"></path>
                        <path d="M62.5532447,216.1537 L60.3534208,214.68456 C59.6995123,214.246998 59.0749349,214.033805 58.4788257,214.044121 C57.8835792,214.054437 57.3832271,214.359612 56.9777694,214.962226 C56.5602342,215.584612 56.4765546,216.171753 56.7275933,216.727086 C56.9794947,217.28156 57.5109032,217.830016 58.3244067,218.373314 L60.2110792,219.634419 L62.5532447,216.1537 Z M59.3544419,220.90756 L57.6308151,219.75563 C56.8966778,219.26563 56.267787,219.028367 55.7415546,219.041261 C55.2153222,219.055016 54.7529278,219.357612 54.3543715,219.949911 C53.9230335,220.591209 53.8566074,221.159437 54.1568187,221.652875 C54.4561673,222.147174 55.0617658,222.697349 55.9736144,223.30684 L57.191713,224.121788 L59.3544419,220.90756 Z M57.8507975,226.472068 L54.6701109,224.347016 C53.3528046,223.466735 52.5030687,222.605367 52.1217658,221.76377 C51.740463,220.922174 51.8586496,220.041893 52.475463,219.123788 C53.2932799,217.909963 54.3543715,217.45263 55.660463,217.752647 C55.1989313,217.200753 54.9151109,216.592981 54.8090018,215.927612 C54.7037553,215.263963 54.893544,214.571086 55.378368,213.84984 C56.733632,211.836542 58.8075053,211.762612 61.601713,213.628911 L64.9756391,215.88377 L57.8507975,226.472068 Z" id="Fill-80" fill="#000000"></path>
                        <path d="M47.4277729,215.712098 C48.633794,215.51094 49.7216285,214.843853 50.6886884,213.713414 C51.6566109,212.581256 52.1466109,211.399239 52.156963,210.167361 C52.1690405,208.934625 51.6609243,207.883274 50.6352025,207.011589 C49.608618,206.139046 48.4880018,205.805502 47.2724912,206.00666 C46.0569806,206.208677 44.9622447,206.880923 43.9865581,208.020818 C43.0108715,209.161572 42.5217342,210.339291 42.5173941,211.553975 C42.5131074,212.76866 43.0324384,213.820011 44.0771391,214.707168 C45.1037236,215.578853 46.2208891,215.913256 47.4277729,215.712098 M40.6704313,211.486063 C40.5591461,209.782239 41.1466285,208.178993 42.4311532,206.676326 C43.7156778,205.174519 45.2046567,204.34066 46.8972271,204.176467 C48.5897975,204.013133 50.1719454,204.554712 51.6436708,205.805502 C53.1145335,207.054572 53.9030194,208.525432 54.0091285,210.215502 C54.1152377,211.907291 53.5251673,213.504519 52.2406426,215.007186 C50.956118,216.508993 49.461963,217.341993 47.7616285,217.507905 C46.0604313,217.672098 44.4834595,217.137396 43.0298504,215.9038 C41.5684771,214.661607 40.7817165,213.189028 40.6704313,211.486063" id="Fill-82" fill="#000000"></path>
                        <path d="M39.0057254,203.611505 L37.659088,202.180189 C36.3538592,200.791856 35.1607782,200.601874 34.0815704,201.611102 C33.5156549,202.138926 33.2775563,202.695979 33.369,203.278821 C33.459581,203.862523 33.8227676,204.491786 34.4594225,205.169189 C35.0796866,205.827681 35.5334542,206.301347 35.8198627,206.587611 L39.0057254,203.611505 Z M35.8906021,209.08833 L33.2465,206.278137 C32.2095634,205.176067 31.6203556,204.194347 31.4797394,203.332119 C31.2830493,202.13033 31.6669401,201.078979 32.6331373,200.176347 C33.3991937,199.46026 34.1963063,199.112102 35.02275,199.130154 C35.8491937,199.148207 36.6428556,199.421575 37.4020106,199.95026 C37.9385951,197.982523 38.5105493,195.957189 39.1187359,193.8734 L40.6612007,195.512751 C40.2471162,196.811681 39.675162,198.698611 38.945338,201.17354 L40.1936303,202.500839 L43.9419577,199.000347 L45.2273451,200.367189 L35.8906021,209.08833 Z" id="Fill-84" fill="#000000"></path>
                        <polygon id="Fill-86" fill="#000000" points="28.0251532 200.374411 26.8406989 198.919884 36.7787271 190.882165 37.964044 192.335832"></polygon>
                        <path d="M24.3647324,195.908275 L22.9473556,193.848556 L26.6611761,186.054977 L28.0492218,183.18117 L28.0242042,183.176872 C27.8577077,183.291205 27.4324085,183.588644 26.7500317,184.070047 C26.0676549,184.549732 25.5388345,184.917661 25.1652958,185.173837 L19.5967218,188.976925 L18.544257,187.44503 L29.1042746,180.233433 L30.4811056,182.235556 L26.9424085,189.778118 C26.3014401,191.138942 25.7846972,192.19803 25.3939049,192.955381 L25.404257,192.969995 C25.5621268,192.862539 26.1461585,192.459363 27.1563521,191.762188 C28.1674085,191.064153 28.8454718,190.598223 29.1905423,190.362679 L33.8722852,187.165644 L34.92475,188.695819 L24.3647324,195.908275 Z" id="Fill-88" fill="#000000"></path>
                        <path d="M16.4068908,170.902888 L22.4119789,167.794396 L23.2047782,169.314256 L23.1564683,169.339186 C22.638,169.607396 22.174743,169.841221 21.7666972,170.038081 C23.3574718,170.354432 24.5790211,171.330133 25.4313451,172.966046 C26.2681408,174.571011 26.4130704,176.171677 25.8661338,177.767186 C25.3200599,179.364414 24.1614859,180.620361 22.393,181.535888 C20.6659225,182.429063 18.9750775,182.641396 17.3187394,182.172028 C15.6615387,181.70266 14.3865035,180.613484 13.4953592,178.904502 C12.7862394,177.542818 12.5369261,176.257642 12.747419,175.048975 C12.957912,173.841168 13.5264155,172.795835 14.4520669,171.914695 L15.351838,173.64087 C14.2036162,175.025765 14.0595493,176.541326 14.917912,178.188414 C15.5338627,179.370432 16.4232817,180.106291 17.5827183,180.396853 C18.7430176,180.687414 20.0275423,180.468204 21.4362923,179.739221 C22.8139859,179.026572 23.7301479,178.109326 24.1890915,176.987484 C24.6463099,175.865642 24.5695317,174.71887 23.958757,173.548028 C23.370412,172.418449 22.5758873,171.720414 21.5760458,171.453923 C20.5762042,171.187432 19.5936162,171.250186 18.6282817,171.643046 L20.7823838,175.775379 L19.3365387,176.523274 L16.4068908,170.902888 Z" id="Fill-90" fill="#000000"></path>
                        <polygon id="Fill-92" fill="#000000" points="14.4506866 163.970247 12.8072887 159.403791 14.239331 158.89144 15.8827289 163.457896"></polygon>
                        <path d="M3.92250176,153.590672 L3.39540669,151.149268 L9.79301232,145.344918 L12.1696849,143.212988 L12.148118,143.198374 C11.9505651,143.241356 11.4441743,143.355689 10.6298081,143.543093 C9.81630458,143.728777 9.18827641,143.86976 8.74486092,143.965181 L2.14883979,145.379304 L1.75718486,143.566304 L14.2659877,140.884198 L14.7775546,143.255111 L8.63788908,148.894409 C7.52676232,149.911374 6.64683275,150.695374 5.99723768,151.248128 L6.00068838,151.266181 C6.18788908,151.225777 6.88148063,151.073619 8.08060035,150.810567 C9.28144542,150.547514 10.0854595,150.372146 10.4935053,150.283602 L16.038787,149.095567 L16.4304419,150.907707 L3.92250176,153.590672 Z" id="Fill-94" fill="#000000"></path>
                        <path d="M3.59986092,136.669682 C4.60229049,137.368577 5.84713204,137.653981 7.33352289,137.521595 C8.81991373,137.390928 10.0009173,136.889753 10.8765335,136.018068 C11.751287,135.147244 12.1300018,134.041735 12.0109525,132.703261 C11.8910405,131.363928 11.327713,130.341805 10.3175194,129.636033 C9.30818838,128.931981 8.05472007,128.644858 6.55625176,128.777244 C5.05778345,128.90963 3.88023063,129.408226 3.02186796,130.272174 C2.16436796,131.136121 1.79514261,132.248507 1.91677993,133.611051 C2.03582923,134.950384 2.59656866,135.969928 3.59986092,136.669682 M1.7520088,128.93284 C2.87176232,127.639928 4.41854049,126.906647 6.39234331,126.731279 C8.36614613,126.55763 10.0155827,127.003788 11.3380651,128.068893 C12.6614102,129.133998 13.407625,130.627209 13.5784349,132.545946 C13.7492447,134.466402 13.2773609,136.066209 12.1627835,137.347086 C11.048206,138.627104 9.50401585,139.354367 7.53021303,139.528875 C5.55641021,139.702525 3.90438556,139.254647 2.57500176,138.184384 C1.24561796,137.113261 0.495952465,135.629507 0.327730634,133.733981 C0.158646127,131.82556 0.633117958,130.225753 1.7520088,128.93284" id="Fill-96" fill="#000000"></path>
                        <path d="M0,123.785433 L0.0854049296,121.289872 L7.70973592,117.210837 L10.5358627,115.717626 L10.5186092,115.698714 C10.3158803,115.691837 9.7965493,115.680661 8.96234155,115.664328 C8.12640845,115.647995 7.48285211,115.632521 7.02908451,115.617047 L0.284683099,115.38924 L0.347658451,113.535837 L13.1385563,113.967381 L13.0566021,116.390732 L5.72213028,120.373486 C4.39619718,121.090433 3.3506338,121.63803 2.58544014,122.016275 L2.58457746,122.034328 C2.77609155,122.041205 3.48521127,122.061837 4.71366197,122.097942 C5.94297535,122.133188 6.76596831,122.157258 7.18264085,122.171872 L12.8530106,122.362714 L12.7908979,124.216977 L0,123.785433 Z" id="Fill-98" fill="#000000"></path>
                        <path d="M10.5981479,105.220279 C11.3245211,105.231454 11.9456479,105.037174 12.4623908,104.634858 C12.9791338,104.233402 13.3155775,103.605858 13.4734472,102.751367 C13.6235528,101.932981 13.5485,101.250419 13.2482887,100.706261 C12.9480775,100.161244 12.4813697,99.8311386 11.8464401,99.7159456 C11.5177606,99.6557702 11.2287641,99.6609281 10.9794507,99.7297 C10.7292746,99.7993316 10.4937641,99.9618053 10.2711937,100.217121 C10.0477606,100.473296 9.87608803,100.698525 9.7544507,100.894525 C9.63453873,101.089665 9.45337676,101.413753 9.21269014,101.865068 L8.79688028,102.642191 C8.16971479,103.809595 7.53305986,104.646033 6.88864085,105.150647 C6.24335915,105.656121 5.45142254,105.822893 4.51196831,105.650963 C3.47934507,105.4627 2.71587676,104.909946 2.22328873,103.990981 C1.7307007,103.072875 1.60388732,101.963928 1.84284859,100.665858 C2.08353521,99.354893 2.58302465,98.3852088 3.34217958,97.7559456 C4.10047183,97.1258228 5.04337676,96.8541737 6.16744366,96.9384193 L5.81978521,98.8339456 C4.45158099,98.8141737 3.63376408,99.5354193 3.36460915,100.997682 C3.23434507,101.711191 3.29128169,102.305209 3.53800704,102.779735 C3.78473239,103.254261 4.17811268,103.540525 4.71814789,103.639384 C5.30476761,103.74684 5.78355282,103.618753 6.15364085,103.25684 C6.5228662,102.894928 6.90761972,102.32756 7.3044507,101.553016 L7.72975,100.724314 C8.33103521,99.5637877 8.94267254,98.7290684 9.5637993,98.2201561 C10.1849261,97.7103842 10.9889401,97.5461912 11.9758415,97.7258579 C13.1266514,97.9356123 13.9720739,98.5313491 14.5138345,99.5130684 C15.0555951,100.494788 15.2013873,101.669928 14.9494859,103.039349 C14.6915458,104.443156 14.1471972,105.504823 13.3173028,106.224349 C12.4874085,106.943016 11.466,107.234437 10.2539401,107.098612 L10.5981479,105.220279 Z" id="Fill-100" fill="#000000"></path>
                        <polygon id="Fill-102" fill="#000000" points="3.74047711 92.9762105 5.93426232 85.2900877 7.51813556 85.7388246 5.84368134 91.6067895 9.49366373 92.6409474 11.050794 87.1847544 12.6174137 87.629193 11.0602835 93.0845263 15.0035757 94.2020702 16.712537 88.214614 18.2791567 88.6590526 16.0517271 96.4655263"></polygon>
                        <path d="M7.03615845,81.9488895 L7.97475,79.6329947 L16.5411232,78.4045561 L19.7097324,77.9669947 L19.700243,77.9437842 C19.5121796,77.8681351 19.0282183,77.6798719 18.2492218,77.3798544 C17.4702254,77.0789772 16.8698028,76.844293 16.4496796,76.6749421 L10.1918275,74.1578895 L10.8888697,72.4377316 L22.7575669,77.2113632 L21.8457183,79.4610649 L13.5855951,80.6972404 C12.0931655,80.9181702 10.9225141,81.075486 10.0736408,81.1700474 L10.0676021,81.1863807 C10.2444507,81.2577316 10.9035352,81.5199246 12.0457183,81.9729596 C13.1879014,82.4259947 13.9522324,82.7303105 14.3395739,82.885907 L19.6010352,85.0023632 L18.9048556,86.7225211 L7.03615845,81.9488895 Z" id="Fill-104" fill="#000000"></path>
                        <path d="M21.2720387,72.1422702 C21.9595915,72.3752351 22.6100493,72.3786737 23.226,72.1551649 C23.841088,71.9307965 24.3535176,71.4364982 24.7658768,70.6714105 C25.1609824,69.9381298 25.2990106,69.2667439 25.1808239,68.656393 C25.0626373,68.0469018 24.7192923,67.5904281 24.1516514,67.2861123 C23.8574789,67.1287965 23.5805599,67.0454105 23.321757,67.0350947 C23.0629542,67.0247789 22.7886232,67.1073053 22.4979014,67.2826737 C22.2071796,67.4580421 21.974257,67.6196561 21.7991338,67.7692351 C21.6240106,67.9179544 21.3531303,68.1706912 20.9847676,68.5274456 L20.3507007,69.1395158 C19.393993,70.0593404 18.5321796,70.6602351 17.7635352,70.9439193 C16.9940282,71.2276035 16.1891514,71.1442175 15.3489049,70.6946211 C14.4232535,70.2003228 13.8676901,69.440393 13.6804894,68.4165509 C13.4941514,67.3927088 13.7141338,66.2992351 14.3412993,65.1361298 C14.9727782,63.9627088 15.7465986,63.1924632 16.6618979,62.825393 C17.5780599,62.4574632 18.5580599,62.4866912 19.6018979,62.9104982 L18.6883239,64.6074456 C17.3934472,64.1707439 16.392743,64.6074456 15.6870739,65.9166912 C15.3428662,66.5562702 15.2151901,67.1391123 15.3040458,67.6652175 C15.3937641,68.1921825 15.6793099,68.5841825 16.1624085,68.8429368 C16.6886408,69.1240421 17.1829542,69.1498316 17.6462113,68.9177263 C18.1094683,68.6864807 18.6486408,68.2635333 19.2645915,67.6480246 L19.9245387,66.9886737 C20.8536408,66.0688491 21.6912993,65.4610772 22.4401021,65.1662175 C23.1880423,64.8713579 24.0032711,64.9599018 24.8857887,65.4327088 C25.9166866,65.9828842 26.5378134,66.8081474 26.7526197,67.9076386 C26.9657007,69.0071298 26.7422676,70.1702351 26.0814577,71.3952351 C25.4051197,72.6529018 24.5614225,73.4970772 23.5503662,73.9277614 C22.5393099,74.3584456 21.4782183,74.3240596 20.3662289,73.8237439 L21.2720387,72.1422702 Z" id="Fill-106" fill="#000000"></path>
                        <polygon id="Fill-108" fill="#000000" points="18.5054366 58.3803193 22.951669 51.7283544 24.3233239 52.6378632 20.9286937 57.7166702 24.0878134 59.8133544 27.2443451 55.0913018 28.5996092 55.9913544 25.4439401 60.713407 28.8558239 62.9777228 32.320331 57.7957579 33.6755951 58.6958105 29.1603486 65.451793"></polygon>
                        <path d="M27.0765546,46.0522632 L28.4585616,44.555614 C29.0477694,44.918386 30.052787,45.5287368 31.4753398,46.3875263 C32.8961673,47.2463158 33.9926285,47.9159825 34.7647236,48.3982456 C36.7160968,49.6043333 37.7737377,50.2679825 37.9402342,50.3874737 L37.9764665,50.3479298 C37.7349173,50.046193 37.0163081,49.0240702 35.8206391,47.2807018 L31.5978398,41.1548421 L33.3318187,39.2773684 L40.8759208,43.6237544 C41.3952518,43.9220526 42.0974701,44.3553158 42.9825757,44.9252632 L43.0075933,44.898614 L40.7223644,41.7866842 L36.4236496,35.9290351 L37.7331919,34.510614 C38.1817835,35.1484737 39.3006743,36.7525789 41.0890018,39.3212105 C42.8773292,41.8907018 44.2567482,43.8618772 45.2263961,45.2364561 L43.4199525,47.1930175 L36.5625405,43.2085439 C36.1294771,42.9575263 35.2150405,42.3935965 33.8175053,41.517614 L33.794213,41.5434035 C34.1332447,41.9672105 34.6568891,42.6901754 35.3668715,43.7131579 L40.2073468,50.6720175 L38.3517306,52.6810175 C31.2760616,48.5211754 27.5182447,46.3118772 27.0765546,46.0522632" id="Fill-110" fill="#000000"></path>
                        <path d="M43.7394877,33.0303842 C43.7291356,34.2502263 44.2001567,35.4331035 45.1516884,36.5781561 C46.1023574,37.7240684 47.1858785,38.4092088 48.4022518,38.6335772 C49.618625,38.8579456 50.7470053,38.5415947 51.7856673,37.6853842 C52.8251919,36.828314 53.3505616,35.7855596 53.3600511,34.5571211 C53.3712658,33.3295421 52.896794,32.1380684 51.9383609,30.9835596 C50.9799278,29.8281912 49.9007201,29.1439105 48.699875,28.9289982 C47.4990299,28.7149456 46.3706496,29.0433316 45.3121461,29.9150158 C44.2734842,30.772086 43.7489771,31.8105421 43.7394877,33.0303842 M49.0863539,27.1280333 C50.7901391,27.3145772 52.2739419,28.1673491 53.536037,29.6889281 C54.7989947,31.210507 55.3657729,32.8154719 55.2346461,34.5055421 C55.104382,36.1956123 54.2934665,37.6552965 52.8044877,38.8837351 C51.3137835,40.111314 49.7238715,40.6314018 48.0338891,40.4422789 C46.3439067,40.2540158 44.8670053,39.3986649 43.6040475,37.877086 C42.3410898,36.3563667 41.7751743,34.7462439 41.9063011,33.0484368 C42.0374278,31.3497702 42.8388539,29.8943842 44.3105792,28.6805596 C45.791794,27.4598579 47.3834313,26.9423491 49.0863539,27.1280333" id="Fill-112" fill="#000000"></path>
                        <path d="M57.1674718,26.8550088 L58.8160458,25.781307 C60.4163099,24.7402719 60.8105528,23.6020965 60.0005,22.3667807 C59.5769261,21.7194649 59.0679472,21.3902193 58.4761514,21.3773246 C57.8826303,21.3661491 57.1968028,21.6137281 56.4169437,22.1209211 C55.6577887,22.6152193 55.1108521,22.9779912 54.7769965,23.2092368 L57.1674718,26.8550088 Z M52.2924894,22.8447456 L55.531838,20.736886 C56.7999718,19.9099035 57.8740035,19.5032895 58.7513451,19.5144649 C59.9728944,19.5290789 60.9468556,20.0895702 61.6715035,21.1950789 C62.2460458,22.0719211 62.4522254,22.9143772 62.2900423,23.7224474 C62.1287218,24.5313772 61.7198134,25.2620789 61.0659049,25.9162719 C62.9180704,26.7845175 64.8219965,27.6983246 66.7768204,28.6568333 L64.8875599,29.8869912 C63.6746373,29.2551491 61.9078768,28.3654123 59.5881408,27.2186404 L58.0586162,28.2149737 L60.8692148,32.5020439 L59.294831,33.5267456 L52.2924894,22.8447456 Z" id="Fill-114" fill="#000000"></path>
                        <path d="M69.3098099,25.4802579 L70.6003732,24.823486 C72.1523275,24.0343281 73.1452676,23.1162228 73.5791937,22.0674509 C74.0131197,21.0195386 73.8431725,19.7378018 73.0667641,18.2231 C72.3567817,16.8356263 71.4294049,15.9725386 70.2846338,15.6338368 C69.1398627,15.2951351 67.8449859,15.4928544 66.4000035,16.2278544 L64.9567465,16.9817667 L69.3098099,25.4802579 Z M62.5274507,16.395486 L65.6356725,14.8145912 C67.7293873,13.749486 69.5565352,13.4348544 71.1188415,13.8681175 C72.6802852,14.3022404 73.9354789,15.4455737 74.8844225,17.2989772 C75.3019577,18.1147842 75.567662,18.9142579 75.6806725,19.6973982 C75.7945458,20.4805386 75.7496866,21.2507842 75.5478204,22.0072754 C75.3459542,22.7637667 74.9215176,23.4910298 74.2727852,24.1873456 C73.6249155,24.8836614 72.7751796,25.4991702 71.7235775,26.0347316 L68.3436127,27.7531702 L62.5274507,16.395486 Z" id="Fill-116" fill="#000000"></path>
                        <path d="M79.3223732,18.4738596 C79.6898732,19.0979649 80.1798732,19.5252105 80.7923732,19.7564561 C81.4048732,19.9877018 82.1183063,19.9472982 82.9318099,19.6378246 C83.711669,19.3395263 84.257743,18.9217368 84.5674437,18.3835965 C84.878007,17.8445965 84.9185528,17.2755088 84.6882183,16.6754737 C84.569169,16.3642807 84.41475,16.121 84.2258239,15.9447719 C84.0368979,15.7694035 83.7746444,15.6524912 83.4390634,15.5948947 C83.1052077,15.5381579 82.82225,15.5097895 82.5919155,15.5080702 C82.3607183,15.5072105 81.9897676,15.5209649 81.477338,15.5510526 L80.5965458,15.6009123 C79.2688873,15.6739825 78.2224613,15.567386 77.4538169,15.2802632 C76.6860352,14.994 76.1313345,14.4068596 75.7897148,13.5179825 C75.4153134,12.5405614 75.4929542,11.6035439 76.0243627,10.7077895 C76.5549085,9.81117544 77.4382887,9.12689474 78.6762289,8.65580702 C79.9236585,8.1795614 81.0149437,8.10047368 81.9492218,8.41940351 C82.8826373,8.73833333 83.6055599,9.39854386 84.1188521,10.4000351 L82.3124085,11.088614 C81.6188169,9.91347368 80.5758415,9.59282456 79.1826197,10.1240877 C78.502831,10.3828421 78.0231831,10.7404561 77.7454014,11.1969298 C77.466757,11.6534035 77.4262113,12.1365263 77.6211761,12.6480175 C77.8351197,13.2033509 78.1922676,13.5446316 78.6943451,13.671 C79.1972852,13.7982281 79.8831127,13.8291754 80.7526901,13.7647018 L81.6843803,13.6959298 C82.9913345,13.604807 84.0248204,13.6916316 84.7839754,13.9564035 C85.543993,14.2203158 86.1021444,14.8186316 86.4601549,15.7513509 C86.8794155,16.8396667 86.8078134,17.8695263 86.2479366,18.8409298 C85.6880599,19.8114737 84.7563697,20.545614 83.4520035,21.0433509 C82.1148556,21.5531228 80.9217746,21.6416667 79.8753486,21.3089825 C78.8271972,20.9771579 78.0464754,20.2593509 77.5340458,19.1555614 L79.3223732,18.4738596 Z" id="Fill-118" fill="#000000"></path>
                        <polygon id="Fill-120" fill="#000000" points="92.1083539 11.6482456 96.834956 10.4782632 97.2015933 11.9499825 92.4758539 13.1199649"></polygon>
                    </g>
                </g>
                <g id="smiley" transform="translate(85.000000, 85.000000)" fill="#010101" fill-rule="nonzero">
                    <path d="M37,0 C46.813325,0 56.2225175,3.898875 63.163625,10.836375 C70.10131,17.777575 74,27.186675 74,37 C74,46.813325 70.101125,56.2225175 63.163625,63.163625 C56.222425,70.10131 46.813325,74 37,74 C27.186675,74 17.7774825,70.101125 10.836375,63.163625 C3.89869,56.222425 0,46.813325 0,37 C0,27.186675 3.898875,17.7774825 10.836375,10.836375 C17.777575,3.89869 27.186675,0 37,0 Z M62.029575,35.149963 C61.010595,35.149963 60.179575,35.9774401 60.179575,37 C60.179575,45.2816175 55.76418,52.934975 48.5921,57.075275 C41.42002,61.215575 32.581275,61.21613 25.40975,57.075275 C18.238225,52.93442 13.822275,45.281525 13.822275,37 C13.822275,35.9774125 12.991218,35.149963 11.972275,35.149963 C10.9496875,35.149963 10.122275,35.9774401 10.122275,37 C10.122275,46.604275 15.2459425,55.478725 23.55975,60.2804 C31.877535,65.082445 42.1245,65.082445 50.4421,60.2804 C58.7562775,55.478355 63.879575,46.604275 63.879575,37 C63.879575,36.5085936 63.6844555,36.0388325 63.3375805,35.6919575 C62.9907055,35.3450825 62.5209811,35.149963 62.029538,35.149963 L62.029575,35.149963 Z M31.016175,27.482675 C31.016175,23.4249775 28.8229075,20.13688 26.12015,20.13688 C23.421,20.13688 21.2277325,23.4249775 21.2277325,27.482675 C21.2277325,31.536765 23.421,34.8248625 26.12015,34.8248625 C28.8229075,34.8248625 31.016175,31.536765 31.016175,27.482675 Z M52.772175,27.482675 C52.772175,23.4249775 50.5789075,20.13688 47.8797575,20.13688 C45.177,20.13688 42.9837325,23.4249775 42.9837325,27.482675 C42.9837325,31.536765 45.177,34.8248625 47.8797575,34.8248625 C50.5789075,34.8248625 52.772175,31.536765 52.772175,27.482675 Z" id="Combined-Shape"></path>
                </g>
            </g>
        </g>
    </g>
</svg>